<svg width="18" height="18" viewBox="0 0 18 18" fill="none" xmlns="http://www.w3.org/2000/svg">
<path d="M14.3257 16.6001H3.67433C2.20246 16.6001 1 15.3976 1 13.9258V3.27443C1 1.80256 2.20246 0.600098 3.67433 0.600098H14.3257C15.7975 0.600098 17 1.80256 17 3.27443V13.9258C17 15.4042 15.8041 16.6001 14.3257 16.6001Z" stroke="white"/>
<path d="M6.09895 11.5077C6.87431 12.283 7.90593 12.7101 9.00326 12.7101C10.1006 12.7101 11.1256 12.283 11.9076 11.5077C12.6829 10.7323 13.11 9.70069 13.11 8.60336C13.11 7.50603 12.6829 6.47441 11.9076 5.69905C11.1322 4.92369 10.1006 4.49658 9.00326 4.49658C7.90593 4.49658 6.87431 4.92369 6.09895 5.69905C5.32359 6.47441 4.89648 7.50603 4.89648 8.60336C4.89648 9.70069 5.32359 10.7323 6.09895 11.5077Z" stroke="white"/>
</svg>
