<svg width="20" height="20" viewBox="0 0 20 20" fill="none" xmlns="http://www.w3.org/2000/svg">
<path d="M17.0667 0C17.6325 0 18.1751 0.224761 18.5752 0.624839C18.9752 1.02492 19.2 1.56754 19.2 2.13333V17.0667C19.2 17.6325 18.9752 18.1751 18.5752 18.5752C18.1751 18.9752 17.6325 19.2 17.0667 19.2H2.13333C1.56754 19.2 1.02492 18.9752 0.624839 18.5752C0.224761 18.1751 0 17.6325 0 17.0667V2.13333C0 1.56754 0.224761 1.02492 0.624839 0.624839C1.02492 0.224761 1.56754 0 2.13333 0H17.0667ZM16.5333 16.5333V10.88C16.5333 9.95775 16.167 9.07328 15.5148 8.42115C14.8627 7.76903 13.9782 7.40267 13.056 7.40267C12.1493 7.40267 11.0933 7.95733 10.5813 8.78933V7.60533H7.60533V16.5333H10.5813V11.2747C10.5813 10.4533 11.2427 9.78133 12.064 9.78133C12.4601 9.78133 12.8399 9.93867 13.1199 10.2187C13.4 10.4988 13.5573 10.8786 13.5573 11.2747V16.5333H16.5333ZM4.13867 5.93067C4.61393 5.93067 5.06974 5.74187 5.4058 5.4058C5.74187 5.06974 5.93067 4.61393 5.93067 4.13867C5.93067 3.14667 5.13067 2.336 4.13867 2.336C3.66057 2.336 3.20205 2.52592 2.86399 2.86399C2.52592 3.20205 2.336 3.66057 2.336 4.13867C2.336 5.13067 3.14667 5.93067 4.13867 5.93067ZM5.62133 16.5333V7.60533H2.66667V16.5333H5.62133Z" fill="white"/>
</svg>
